<?xml version="1.0" standalone="no"?><!DOCTYPE svg PUBLIC "-//W3C//DTD SVG 1.1//EN" "http://www.w3.org/Graphics/SVG/1.1/DTD/svg11.dtd"><svg t="1548221811785" class="icon" style="" viewBox="0 0 1024 1024" version="1.1" xmlns="http://www.w3.org/2000/svg" p-id="32395" xmlns:xlink="http://www.w3.org/1999/xlink" width="128" height="128"><defs><style type="text/css"></style></defs><path d="M512 1024L0 512 512 0l512 512z" fill="" p-id="32396"></path><path d="M413.328 858.316c-27.352-24.38-144.952-138.396-172.712-167.456-12.256-12.828-12.6-11.96 6.58-16.416 6.768-1.576 15.836-4.2 20.156-5.84 34.124-12.936 80.192-50.224 119.108-96.412 14.692-17.44 48.62-63.876 47.696-65.28-0.32-0.492-5.2-1.564-10.844-2.388-16.34-2.384-25.256-4.988-37.948-11.092-9.536-4.584-14.36-8.02-24.544-17.464-10.644-9.872-13.592-13.504-18.384-22.652-5.072-9.688-5.712-11.88-5.784-19.8-0.172-19.488 0.896-20.048 38.16-20.048 27.68 0 27.7 0 39.2 3.864 15.072 5.064 29.76 13.056 52.78 28.728 21.74 14.8 34.412 21.816 37.44 20.728 1.676-0.6 1.992-2.108 1.532-7.312-1.492-16.856-25.24-50.32-66.456-93.656-28.904-30.388-51.872-57.052-56.724-65.852-5.368-9.74-10.172-47.748-13.252-104.88-1.248-23.14-1.868-42.456-1.376-42.916 0.92-0.868 39.328 1.76 40.396 2.76 0.332 0.312 1.64 20.46 2.912 44.776 3.62 69.284 4.836 84.816 6.72 85.84 0.916 0.504 8.488 5.632 16.828 11.4 8.34 5.772 15.368 9.972 15.612 9.34 0.248-0.636-0.584-6.52-1.84-13.08-2.664-13.888-2.24-33.448 1.54-71.26l2.32-23.2h34.86l0.748 12.68c0.416 6.98 1.376 34.8 2.136 61.832 1.368 48.54 2.612 64.948 5.648 74.616 1.04 3.304 4.704 8.036 11.028 14.232 5.212 5.104 9.744 9 10.072 8.664 0.328-0.34 5.392-8.48 11.256-18.092 11.576-18.984 25.78-45.256 30.444-56.32 5.12-12.14 12.248-16.056 25.76-14.152 3.448 0.484 7.688 2.176 9.964 3.972 5.116 4.04 5.26 10.064 0.58 23.976-6.752 20.056-18.156 40.46-41.832 74.848l-14.488 21.04 10.4 19.104c7.244 13.304 12.404 21.104 17 25.692 6.264 6.26 7.028 6.64 15.48 7.72 23.4 2.976 38.8 13.936 115.06 81.844 38.04 33.876 57.304 50.292 71.364 60.812 22.768 17.032 27.856 28.1 21.62 47.048-4.448 13.52-16.512 28.344-27.304 33.56-9.876 4.768-46.136 8.76-98.2 10.82-42.388 1.68-70.852 0.316-92.088-4.4-18.12-4.028-22.972-4.024-26.96 0.02-3.14 3.172-3.656 4.76-11.72 35.84-11.884 45.788-37.88 92.16-67.292 120.032-13.784 13.064-32.716 27.864-35.64 27.864-0.908 0-8.568-6.16-17.012-13.684z" fill="#FFFFFF" p-id="32397"></path></svg>