<?xml version="1.0" standalone="no"?><!DOCTYPE svg PUBLIC "-//W3C//DTD SVG 1.1//EN" "http://www.w3.org/Graphics/SVG/1.1/DTD/svg11.dtd"><svg t="1586007036907" class="icon" viewBox="0 0 1024 1024" version="1.1" xmlns="http://www.w3.org/2000/svg" p-id="5309" xmlns:xlink="http://www.w3.org/1999/xlink" width="200" height="200"><defs><style type="text/css"></style></defs><path d="M671.674608 0.440131c15.718955 0 28.805899 11.33227 31.511022 26.320111l0.51178 5.70269v32.022802h128.383652a191.259473 191.259473 0 0 1 190.382136 179.634757l0.365557 12.063384v575.606204a191.259473 191.259473 0 0 1-179.122977 190.820804l-12.063384 0.438669h-640.456033A191.259473 191.259473 0 0 1 0.731114 849.409931L0 837.054101V250.481185A191.259473 191.259473 0 0 1 178.903643 64.924403l12.35583-0.438669h128.602986V32.462932A32.022802 32.022802 0 0 1 383.396282 26.760242l0.51178 5.848913v31.94969h255.743745V32.462932c0-17.692963 14.329838-32.022802 32.022801-32.022801z m287.839658 415.71153H63.314489v415.930864l0.438669 10.454932a127.944984 127.944984 0 0 0 116.393379 116.978271l11.112936 0.438669h640.382921a128.164318 128.164318 0 0 0 127.433203-117.41694l0.438669-10.454932v-416.003976zM296.101248 767.96381a36.55571 36.55571 0 1 1 0 73.111419h-109.667129a36.55571 36.55571 0 0 1-6.580028-72.526528l6.580028-0.584891h109.667129z m292.372565 0a36.55571 36.55571 0 1 1 0 73.111419H442.250975a36.55571 36.55571 0 1 1 0-73.111419h146.222838z m255.743745 0a36.55571 36.55571 0 1 1 0 73.111419H734.769763a36.55571 36.55571 0 0 1-6.580027-72.526528l6.580027-0.584891h109.520906zM296.101248 548.775775a36.55571 36.55571 0 1 1 0 73.111419h-109.667129a36.55571 36.55571 0 1 1 0-73.111419h109.667129z m292.372565 0a36.55571 36.55571 0 1 1 0 73.111419H442.250975a36.55571 36.55571 0 1 1 0-73.111419h146.222838z m255.743745 0a36.55571 36.55571 0 1 1 0 73.111419H734.769763a36.55571 36.55571 0 0 1-6.580027-72.526528l6.580027-0.584891h109.520906zM319.131345 128.385114h-127.944984A127.944984 127.944984 0 0 0 64.484272 246.167611l-0.365557 10.454933v95.629736h895.468662l-0.731114-96.141516a128.164318 128.164318 0 0 0-117.416939-127.433204l-10.454933-0.438668h-127.944984v63.3876a32.022802 32.022802 0 0 1-63.533823 5.702691l-0.51178-5.702691v-63.3876H383.176948v63.3876a32.022802 32.022802 0 0 1-63.606935 5.702691l-0.438668-5.702691v-63.3876z" p-id="5310"></path></svg>