<svg class="icon" viewBox="0 0 1024 1024" xmlns="http://www.w3.org/2000/svg" width="200" height="200"><defs><style/></defs><path d="M671.675.44c15.719 0 28.806 11.332 31.51 26.32l.512 5.703v32.023h128.384a191.26 191.26 0 0 1 190.382 179.634l.366 12.064V831.79a191.26 191.26 0 0 1-179.123 190.82l-12.064.44H191.186A191.26 191.26 0 0 1 .731 849.41L0 837.054V250.481A191.26 191.26 0 0 1 178.904 64.924l12.355-.438h128.603V32.463a32.023 32.023 0 0 1 63.534-5.703l.512 5.85v31.949h255.744V32.463c0-17.693 14.33-32.023 32.023-32.023zm287.84 415.712h-896.2v415.93l.438 10.455a127.945 127.945 0 0 0 116.394 116.979l11.112.438h640.383a128.164 128.164 0 0 0 127.434-117.417l.438-10.454V416.079zM296.1 767.964a36.556 36.556 0 1 1 0 73.111H186.434a36.556 36.556 0 0 1-6.58-72.526l6.58-.585h109.667zm292.373 0a36.556 36.556 0 1 1 0 73.111H442.25a36.556 36.556 0 1 1 0-73.111h146.223zm255.744 0a36.556 36.556 0 1 1 0 73.111H734.77a36.556 36.556 0 0 1-6.58-72.526l6.58-.585h109.52zM296.1 548.776a36.556 36.556 0 1 1 0 73.111H186.434a36.556 36.556 0 1 1 0-73.111h109.667zm292.373 0a36.556 36.556 0 1 1 0 73.111H442.25a36.556 36.556 0 1 1 0-73.111h146.223zm255.744 0a36.556 36.556 0 1 1 0 73.111H734.77a36.556 36.556 0 0 1-6.58-72.526l6.58-.585h109.52zM319.13 128.386H191.186A127.945 127.945 0 0 0 64.484 246.167l-.365 10.455v95.63h895.468l-.73-96.142a128.164 128.164 0 0 0-117.418-127.433l-10.455-.44H703.04v63.388a32.023 32.023 0 0 1-63.533 5.703l-.512-5.703V128.24H383.177v63.387a32.023 32.023 0 0 1-63.607 5.703l-.439-5.703V128.24z"/></svg>