<svg class="icon" viewBox="0 0 1251 1024" xmlns="http://www.w3.org/2000/svg" width="244.336" height="200"><defs><style/></defs><path d="M1235.176 4.928c-17.629-11.089-58.574 0-58.574 0S72.513 461.008 32.706 477.784s-42.651 60.565-11.942 74.213l339.216 152.69 21.326-50.328L76.21 519.014 1116.607 85.68 501.865 678.244a126.53 126.53 0 0 0-42.65 82.174l-25.591 257.895 52.034 5.403s24.453-235.149 25.59-253.062a76.487 76.487 0 0 1 19.051-44.926l647.44-625.546-152.69 511.81-90.704 302.253c-2.559 8.246-8.246 11.374-15.354 7.962l-327.559-142.17-22.747 49.475s302.537 132.786 332.677 145.297a61.417 61.417 0 0 0 82.174-43.788c9.383-32.13 257.611-860.41 261.592-875.48s13.933-35.543-9.952-50.613z"/></svg>