<?xml version="1.0" standalone="no"?><!DOCTYPE svg PUBLIC "-//W3C//DTD SVG 1.1//EN" "http://www.w3.org/Graphics/SVG/1.1/DTD/svg11.dtd"><svg t="1586064449600" class="icon" viewBox="0 0 1251 1024" version="1.1" xmlns="http://www.w3.org/2000/svg" p-id="2128" xmlns:xlink="http://www.w3.org/1999/xlink" width="244.3359375" height="200"><defs><style type="text/css"></style></defs><path d="M1235.176138 4.928451c-17.629028-11.089227-58.573867 0-58.573867 0S72.513312 461.008463 32.70583 477.784474s-42.650874 60.564241-11.942245 74.21252l339.216618 152.690129 21.325437-50.328031-305.095918-135.34544L1116.606708 85.680772 501.865444 678.243581a126.530926 126.530926 0 0 0-42.650874 82.174018l-25.590524 257.895618 52.034066 5.402444s24.453168-235.148485 25.590524-253.061853a76.487234 76.487234 0 0 1 19.050724-44.925587l647.440267-625.546152-152.690129 511.810488-90.704192 302.252527c-2.559052 8.245836-8.245836 11.373566-15.354314 7.961497l-327.558713-142.16958-22.747132 49.475014s302.536866 132.786388 332.676817 145.29731a61.417259 61.417259 0 0 0 82.174017-43.78823c9.383192-32.130325 257.611279-860.410298 261.592027-875.480274s13.932619-35.542395-9.95187-50.61237z" p-id="2129"></path></svg>