<svg class="icon" viewBox="0 0 1024 1024" xmlns="http://www.w3.org/2000/svg" width="200" height="200"><defs><style/></defs><path d="M1007.983 512c0-273.925-222.06-495.984-495.983-495.984S16.017 238.076 16.017 512 238.077 1007.984 512 1007.984c113.738 0 221.668-38.428 308.797-107.83 10.452-8.326 12.175-23.548 3.85-33.999-8.326-10.452-23.548-12.175-33.999-3.85-78.637 62.639-175.962 97.291-278.648 97.291-247.2 0-447.595-200.395-447.595-447.595S264.8 64.405 512 64.405 959.595 264.8 959.595 512c0 84.755-23.573 165.977-67.4 236.33-7.067 11.34-3.6 26.263 7.741 33.329 11.342 7.066 26.264 3.599 33.33-7.743 48.576-77.975 74.717-168.05 74.717-261.916zM524.26 537.694L372 692.738c-9.363 9.535-24.682 9.673-34.215.31-9.533-9.362-9.672-24.68-.31-34.214l152.876-155.67-152.876-155.669c-9.362-9.534-9.224-24.852.31-34.214 9.534-9.362 24.852-9.224 34.214.31L524.26 468.635l152.262-155.044c9.362-9.534 24.681-9.672 34.214-.31 9.533 9.362 9.673 24.681.31 34.214l-152.875 155.67 152.875 155.67c9.363 9.532 9.224 24.851-.31 34.213-9.534 9.363-24.852 9.225-34.214-.31L524.26 537.694z"/></svg>