<svg class="icon" viewBox="0 0 1024 1024" xmlns="http://www.w3.org/2000/svg" width="200" height="200"><defs><style/></defs><path d="M512.957 31.829c-265.724 0-481.128 215.405-481.128 481.128s215.405 481.128 481.128 481.128c110.33 0 215.03-37.27 299.567-104.605 10.115-8.074 11.804-22.836 3.708-32.975-8.073-10.139-22.836-11.805-32.951-3.732-76.277 60.763-170.719 94.372-270.324 94.372-239.79 0-434.189-194.4-434.189-434.19s194.4-434.188 434.189-434.188 434.189 194.4 434.189 434.189c0 82.214-22.884 161.002-65.363 229.251-6.877 10.984-3.52 25.488 7.486 32.342 11.008 6.853 25.465 3.496 32.342-7.51 47.127-75.643 72.475-163.02 72.475-254.083-.001-265.723-215.406-481.127-481.13-481.127z"/><path d="M548.16 289.995c0-12.955-10.49-23.47-23.469-23.47-12.955 0-23.47 10.515-23.47 23.47v41.072c0 12.955 10.515 23.47 23.47 23.47 12.979 0 23.47-10.515 23.47-23.47v-41.072zM524.691 407.342c-12.955 0-23.47 10.515-23.47 23.47V730.05c0 12.979 10.515 23.47 23.47 23.47 12.979 0 23.47-10.491 23.47-23.47V430.813c0-12.956-10.491-23.47-23.47-23.47z"/></svg>