<svg class="icon" viewBox="0 0 1024 1024" xmlns="http://www.w3.org/2000/svg" width="200" height="200"><defs><style/></defs><path d="M600.939 188.982c-50.265-78.65-138.77-78.695-189.318.207L59.839 738.294c-50.972 79.543-10.115 152.581 86.266 154.39l730.77-.046c96.757 1.81 138.417-69.237 87.492-148.894-2.71-4.26-2.71-4.26-10.916-17.04-4.102-6.367-4.102-6.367-7.45-11.704-6.883-10.787-21.43-14.062-32.487-7.375-11.057 6.665-14.453 20.774-7.592 31.538 3.442 5.314 3.442 5.314 7.473 11.726 8.205 12.78 8.205 12.78 10.916 17.04 31.167 48.806 12.872 80.023-46.517 78.902l-730.77.046c-59.814-1.123-78.768-35.019-47.153-84.376l351.805-549.105c32.063-50.066 77.377-50.044 109.417.046L845.235 644.07c7.073 10.627 21.642 13.742 32.629 6.916 10.962-6.848 14.146-21.002 7.12-31.675L600.939 188.982z"/><path d="M477.144 609.653c0 12.976 13.123 23.463 29.291 23.463 16.17 0 29.292-10.488 29.292-23.463V310.487c0-12.952-13.122-23.464-29.292-23.464-16.169 0-29.29 10.512-29.29 23.464v299.166zM477.696 752.144c.115 14.047 13.201 25.28 29.218 25.178 16.017-.101 28.928-11.537 28.812-25.557l-.551-64.628c-.116-13.996-13.202-25.303-29.219-25.178-16.045.102-28.929 11.512-28.812 25.532l.552 64.653z"/></svg>