<svg class="icon" viewBox="0 0 1024 1024" xmlns="http://www.w3.org/2000/svg" width="200" height="200"><defs><style/></defs><path d="M517.226 28.106c-267.441 0-484.239 216.798-484.239 484.239s216.798 484.239 484.239 484.239c111.052 0 216.415-37.509 301.48-105.282 10.209-8.131 11.883-23.001 3.752-33.191-8.131-10.21-22.982-11.884-33.191-3.753-76.773 61.156-171.804 94.971-272.061 94.971C275.853 949.33 80.2 753.676 80.2 512.323S275.853 75.32 517.206 75.32c241.352 0 437.006 195.654 437.006 437.005 0 82.745-23.022 162.039-65.797 230.74-6.9 11.057-3.531 25.645 7.546 32.525 11.077 6.9 25.644 3.532 32.545-7.546 47.435-76.126 72.959-164.076 72.959-255.719 0-267.42-216.798-484.218-484.239-484.218z"/><path d="M788.56 375.245L505 667.907c-8.919 9.2-23.526 9.624-32.949.948l-171.602-157.74c-9.604-8.818-10.23-23.768-1.412-33.372 8.837-9.604 23.768-10.23 33.372-1.412L487.08 618.495l267.563-276.138c9.06-9.362 24.03-9.603 33.393-.525 9.382 9.08 9.604 24.051.524 33.413z"/></svg>