<svg class="icon" viewBox="0 0 1028 1024" xmlns="http://www.w3.org/2000/svg" width="200.781" height="200"><defs><style/></defs><path d="M277.943 555.886a277.943 277.943 0 1 1 277.943-277.943 277.943 277.943 0 0 1-277.943 277.943zm0-497.372A219.429 219.429 0 1 0 497.37 277.943 219.429 219.429 0 0 0 277.943 58.514zm574.756 537.6a175.543 175.543 0 1 1 175.543-175.543A175.543 175.543 0 0 1 852.7 596.114zm0-292.571A117.029 117.029 0 1 0 969.728 420.57a117.029 117.029 0 0 0-117.029-117.028zM365.714 1024a175.543 175.543 0 1 1 175.543-175.543A175.543 175.543 0 0 1 365.714 1024zm0-292.571a117.029 117.029 0 1 0 117.029 117.028A117.029 117.029 0 0 0 365.714 731.43z"/><path d="M731.429 351.086h-204.8a29.257 29.257 0 0 1 0-58.515h204.8a29.257 29.257 0 0 1 0 58.515zM277.943 746.057a29.257 29.257 0 0 1-29.257-29.257V526.629a29.257 29.257 0 0 1 58.514 0V716.8a29.257 29.257 0 0 1-29.257 29.257z"/></svg>