<svg class="icon" viewBox="0 0 1024 1024" xmlns="http://www.w3.org/2000/svg" width="200" height="200"><defs><style/></defs><path d="M673.13 1024H57.674A57.826 57.826 0 0 1 0 966.325V350.87A351.172 351.172 0 0 1 350.87 0h615.455A57.826 57.826 0 0 1 1024 57.675V673.13A351.172 351.172 0 0 1 673.13 1024zM60.234 963.765H673.13a290.936 290.936 0 0 0 290.636-290.636V60.235H350.87A290.936 290.936 0 0 0 60.235 350.871z"/><path d="M256 331.294h406.588"/><path d="M662.588 361.412H256a30.118 30.118 0 0 1 0-60.236h406.588a30.118 30.118 0 0 1 0 60.236z"/><path d="M256 512h527.059"/><path d="M783.059 542.118H256a30.118 30.118 0 0 1 0-60.236h527.059a30.118 30.118 0 0 1 0 60.236z"/><path d="M256 692.706h376.47"/><path d="M632.47 722.824H256a30.118 30.118 0 0 1 0-60.236h376.47a30.118 30.118 0 0 1 0 60.236z"/></svg>