<svg class="icon" viewBox="0 0 1082 1024" xmlns="http://www.w3.org/2000/svg" width="211.328" height="200"><defs><style/></defs><path d="M877.714 1024H204.8A204.8 204.8 0 0 1 0 819.2V424.229a29.257 29.257 0 0 1 29.257-29.258h1024a29.257 29.257 0 0 1 29.257 29.258V819.2a204.8 204.8 0 0 1-204.8 204.8zm-819.2-570.514V819.2A146.286 146.286 0 0 0 204.8 965.486h672.914A146.286 146.286 0 0 0 1024 819.2V453.486z"/><path d="M321.829 453.486H146.286a29.257 29.257 0 0 1-29.257-29.257V29.257A29.257 29.257 0 0 1 146.286 0h175.543a29.257 29.257 0 0 1 29.257 29.257V424.23a29.257 29.257 0 0 1-29.257 29.257zM175.543 394.97H292.57V58.514H175.543zm775.314 58.515H775.314a29.257 29.257 0 0 1-29.257-29.257V29.257A29.257 29.257 0 0 1 775.314 0h175.543a29.257 29.257 0 0 1 29.257 29.257V424.23a29.257 29.257 0 0 1-29.257 29.257zM804.571 394.97H921.6V58.514H804.571zM471.04 438.857a29.257 29.257 0 0 1-28.233-21.65L356.79 96.256a29.257 29.257 0 0 1 20.626-35.84L547.11 14.629a29.257 29.257 0 0 1 35.693 20.626l94.355 351.086a29.257 29.257 0 0 1-56.613 14.628L533.943 79.141l-113.079 30.28 78.41 292.572a29.257 29.257 0 0 1-20.627 35.84 27.94 27.94 0 0 1-7.607 1.024z"/></svg>