<svg class="icon" viewBox="0 0 1024 1024" xmlns="http://www.w3.org/2000/svg" width="200" height="200"><defs><style/></defs><path d="M907.636 1008.485a31.03 31.03 0 0 1-31.03-31.03v-543.03a372.364 372.364 0 0 0-744.727 0v543.03a31.03 31.03 0 0 1-62.06 0v-543.03a434.424 434.424 0 0 1 868.848 0v543.03a31.03 31.03 0 0 1-31.03 31.03z"/><path d="M992.97 1024H31.03a31.03 31.03 0 0 1 0-62.06h961.94a31.03 31.03 0 0 1 0 62.06zM682.667 713.697a124.121 124.121 0 1 1 124.12-124.121 124.121 124.121 0 0 1-124.12 124.121zm0-186.182a62.06 62.06 0 1 0 62.06 62.06 62.06 62.06 0 0 0-62.06-62.06z"/></svg>