<?xml version="1.0" standalone="no"?><!DOCTYPE svg PUBLIC "-//W3C//DTD SVG 1.1//EN" "http://www.w3.org/Graphics/SVG/1.1/DTD/svg11.dtd"><svg t="1586004501731" class="icon" viewBox="0 0 1024 1024" version="1.1" xmlns="http://www.w3.org/2000/svg" p-id="1150" xmlns:xlink="http://www.w3.org/1999/xlink" width="200" height="200"><defs><style type="text/css"></style></defs><path d="M673.129412 1024H57.675294A57.825882 57.825882 0 0 1 0 966.324706V350.870588A351.171765 351.171765 0 0 1 350.870588 0h615.454118A57.825882 57.825882 0 0 1 1024 57.675294V673.129412A351.171765 351.171765 0 0 1 673.129412 1024zM60.235294 963.764706h612.894118A290.936471 290.936471 0 0 0 963.764706 673.129412V60.235294H350.870588A290.936471 290.936471 0 0 0 60.235294 350.870588z" fill="" p-id="1151"></path><path d="M256 331.294118h406.588235" fill="#FFFFFF" p-id="1152"></path><path d="M662.588235 361.411765H256a30.117647 30.117647 0 0 1 0-60.235294h406.588235a30.117647 30.117647 0 0 1 0 60.235294z" fill="" p-id="1153"></path><path d="M256 512h527.058824" fill="#FFFFFF" p-id="1154"></path><path d="M783.058824 542.117647H256a30.117647 30.117647 0 0 1 0-60.235294h527.058824a30.117647 30.117647 0 0 1 0 60.235294z" fill="" p-id="1155"></path><path d="M256 692.705882h376.470588" fill="#FFFFFF" p-id="1156"></path><path d="M632.470588 722.823529H256a30.117647 30.117647 0 0 1 0-60.235294h376.470588a30.117647 30.117647 0 0 1 0 60.235294z" fill="" p-id="1157"></path></svg>