<?xml version="1.0" standalone="no"?><!DOCTYPE svg PUBLIC "-//W3C//DTD SVG 1.1//EN" "http://www.w3.org/Graphics/SVG/1.1/DTD/svg11.dtd"><svg t="1586004283223" class="icon" viewBox="0 0 1024 1024" version="1.1" xmlns="http://www.w3.org/2000/svg" p-id="1432" xmlns:xlink="http://www.w3.org/1999/xlink" width="200" height="200"><defs><style type="text/css"></style></defs><path d="M907.636364 1008.484848a31.030303 31.030303 0 0 1-31.030303-31.030303V434.424242a372.363636 372.363636 0 0 0-744.727273 0v543.030303a31.030303 31.030303 0 0 1-62.060606 0V434.424242a434.424242 434.424242 0 0 1 868.848485 0v543.030303a31.030303 31.030303 0 0 1-31.030303 31.030303z" fill="" p-id="1433"></path><path d="M992.969697 1024H31.030303a31.030303 31.030303 0 0 1 0-62.060606h961.939394a31.030303 31.030303 0 0 1 0 62.060606zM682.666667 713.69697a124.121212 124.121212 0 1 1 124.121212-124.121212 124.121212 124.121212 0 0 1-124.121212 124.121212z m0-186.181818a62.060606 62.060606 0 1 0 62.060606 62.060606 62.060606 62.060606 0 0 0-62.060606-62.060606z" fill="" p-id="1434"></path></svg>