<svg class="icon" viewBox="0 0 1190 1024" xmlns="http://www.w3.org/2000/svg" width="232.422" height="200"><defs><style/></defs><path d="M636.54 940.973h456.65a13.838 13.838 0 0 0 13.837-13.838V262.92a13.838 13.838 0 0 0-13.838-13.838H636.541zM592.814 1024H94.651A96.865 96.865 0 0 1 0 927.135V262.92a96.865 96.865 0 0 1 96.865-96.865h69.19v-69.19A96.865 96.865 0 0 1 262.918 0a44.835 44.835 0 0 1 18.82 4.428L604.99 166.054h488.2a96.865 96.865 0 0 1 96.864 96.865v664.216A96.865 96.865 0 0 1 1093.19 1024H595.027zm-39.3-790.97L256.278 84.687a13.284 13.284 0 0 0-7.196 12.177V761.08a13.838 13.838 0 0 0 13.838 13.838 44.835 44.835 0 0 1 18.82 4.428l271.775 136.164zM419.01 940.972l-166.054-83.58a96.865 96.865 0 0 1-86.902-96.312v-512h-69.19a13.838 13.838 0 0 0-13.837 13.838v664.216a13.838 13.838 0 0 0 13.838 13.838z"/></svg>