<svg class="icon" viewBox="0 0 1024 1024" xmlns="http://www.w3.org/2000/svg" width="200" height="200"><defs><style/></defs><path d="M896.2 499.2l-8.7-8.7c-.8-1.1-1.7-2.1-2.6-3L506.6 109.2C500.8 100.6 491.1 95 480 95H224c-70.7 0-128 57.3-128 128v264c0 4.5 1.2 8.7 3.4 12.3 1.3 2.6 3.1 5 5.2 7.1l382.7 382.7c2.3 2.3 4.9 4.1 7.6 5.5l2.9 2.9c40.7 40.7 106.7 40.7 147.3 0l251-251c40.8-40.6 40.8-106.6.1-147.3zM252.8 156.9h96l-80.3 80.3c-12.6 8.1-23.3 18.8-31.4 31.4l-75.9 75.9v-96c0-50.6 41-91.6 91.6-91.6zm589.2 447l-240 240c-17.5 17.5-45.9 17.5-63.4 0L161.2 466.6V344.5l75.9-75.9c-10.5 16.3-16.7 35.8-16.7 56.7 0 57.9 46.9 104.8 104.8 104.8S430 383.1 430 325.2c0-57.9-46.9-104.8-104.8-104.8-20.9 0-40.4 6.1-56.7 16.7l80.3-80.3h109.5L842 540.6c17.5 17.5 17.5 45.8 0 63.3zM282.8 324.6c0-23.5 19-42.5 42.5-42.5s42.5 19 42.5 42.5-19 42.5-42.5 42.5-42.5-19-42.5-42.5z"/></svg>